<?xml version="1.0" standalone="no"?>
<!DOCTYPE svg PUBLIC "-//W3C//DTD SVG 20010904//EN"
 "http://www.w3.org/TR/2001/REC-SVG-20010904/DTD/svg10.dtd">
<svg version="1.0" xmlns="http://www.w3.org/2000/svg"
 width="433.000000pt" height="577.000000pt" viewBox="0 0 433.000000 577.000000"
 preserveAspectRatio="xMidYMid meet">

<g transform="translate(0.000000,577.000000) scale(0.100000,-0.100000)"
fill="#000000" stroke="none">
<path d="M1372 3472 c-32 -38 -104 -82 -136 -82 -10 0 -27 5 -39 11 -16 9 -14
3 12 -29 43 -55 75 -80 122 -93 53 -16 117 8 153 59 l26 37 0 -115 c0 -144 -7
-160 -139 -290 -112 -111 -163 -184 -196 -279 -25 -75 -22 -99 6 -51 28 46 60
48 163 11 145 -50 198 -40 277 51 60 70 69 86 30 58 -41 -29 -90 -24 -184 21
-111 51 -188 35 -254 -53 -32 -44 -29 -22 3 26 52 76 106 111 304 197 79 34
129 68 146 100 10 21 14 67 14 177 l0 149 -49 7 c-61 8 -163 58 -195 97 -14
16 -27 29 -29 29 -2 0 -18 -17 -35 -38z"/>
<path d="M2171 3458 c-45 -52 -104 -82 -148 -75 l-34 6 22 -30 c36 -51 97 -89
141 -89 47 0 108 30 137 66 l21 27 0 -96 c0 -93 -1 -98 -30 -131 -31 -35 -124
-75 -179 -77 l-26 -1 25 -8 c14 -4 41 -9 60 -9 53 -2 116 -35 134 -69 20 -39
30 -128 21 -187 l-7 -47 -36 35 c-83 80 -170 76 -272 -13 l-35 -31 37 7 c59
10 115 -25 168 -105 l15 -23 50 47 c28 25 87 67 133 92 45 24 89 54 97 66 10
14 15 45 15 90 0 62 -3 71 -28 97 -28 28 -84 49 -132 51 -65 2 -60 15 14 37
55 16 85 31 111 57 l35 36 0 93 0 93 -54 6 c-66 7 -125 36 -176 87 -22 22 -41
40 -42 39 -2 0 -18 -19 -37 -41z"/>
<path d="M2934 3474 c-31 -7 -91 -61 -147 -133 -27 -33 -47 -61 -45 -61 2 0
19 11 38 25 45 33 83 32 163 -5 107 -48 163 -39 249 38 89 80 13 -13 -130
-160 -171 -174 -224 -242 -251 -318 -33 -91 -35 -129 -9 -180 27 -52 101 -97
140 -85 13 4 55 42 95 84 l72 76 -38 -3 c-53 -5 -71 16 -71 81 0 96 34 176
167 400 95 159 144 257 106 210 -23 -29 -68 -45 -101 -37 -15 4 -53 20 -84 35
-57 29 -115 41 -154 33z"/>
</g>
</svg>
